<svg width="150" height="151" viewBox="0 0 150 151" fill="none" xmlns="http://www.w3.org/2000/svg">
<ellipse cx="75" cy="75.0008" rx="65.4545" ry="65.4564" fill="white"/>
<path d="M74.9993 150.002C116.422 150.002 150 116.426 150 75.0008C150 33.5764 116.423 -3.71788e-05 74.9993 -3.71788e-05C33.5755 -3.71788e-05 3.57628e-06 33.5764 3.57628e-06 75.0008C3.57628e-06 116.426 33.5755 150.002 74.9993 150.002ZM26.0311 61.9654C29.8145 61.9381 33.227 63.5466 35.6223 66.1123L58.2068 56.5564L55.1018 49.2218C54.7439 48.3764 54.7363 47.4234 55.0808 46.5724C55.4252 45.7214 56.0935 45.042 56.9386 44.6835C57.7852 44.3263 58.739 44.3198 59.5904 44.6656C60.4417 45.0113 61.121 45.6809 61.4789 46.5272L69.1711 64.6975L99.688 51.7835C99.6177 51.2565 99.5693 50.7226 99.5652 50.1866C99.512 43.0178 105.298 37.1458 112.465 37.0872C119.627 37.0367 125.505 42.818 125.557 49.9869C125.611 57.1523 119.826 63.0243 112.659 63.0836C108.505 63.1143 104.797 61.1772 102.393 58.1492L96.7452 60.5417L107.975 87.0686C108.391 87.0257 108.811 86.997 109.233 86.997C116.4 86.9391 122.275 92.7286 122.33 99.894C122.384 107.058 116.599 112.935 109.433 112.989C102.266 113.041 96.3934 107.254 96.3382 100.09C96.3068 95.8166 98.3591 92.0133 101.534 89.6214L90.3675 63.2438L71.8718 71.0727L74.2752 76.7524C74.852 76.6713 75.4357 76.6072 76.0357 76.6031C83.2016 76.5479 89.0755 82.3339 89.1314 89.498C89.1859 96.6675 83.4007 102.54 76.2334 102.594C69.0675 102.645 63.1923 96.8598 63.1377 89.6992C63.1077 85.6061 64.9848 81.9371 67.935 79.533L60.9061 62.9336L38.8418 72.2734C39.0215 73.1235 39.1156 73.9894 39.1227 74.8583C39.1759 82.0278 33.3921 87.8998 26.2255 87.955C19.0596 88.0102 13.1864 82.2242 13.1325 75.0601C13.0793 67.8892 18.8673 62.0145 26.0311 61.9654Z" fill="url(#paint0_linear_1_9)"/>
<path d="M103.957 100.031C103.981 102.997 106.41 105.392 109.373 105.368C112.341 105.345 114.736 102.914 114.712 99.952C114.69 96.9832 112.259 94.5907 109.293 94.6138C106.33 94.6336 103.934 97.0657 103.957 100.031ZM112.6 55.4682C115.568 55.4375 117.963 53.0122 117.938 50.0489C117.928 48.622 117.351 47.2577 116.335 46.2557C115.319 45.2537 113.947 44.6961 112.52 44.7053C109.559 44.7278 107.163 47.1641 107.184 50.1253C107.206 53.0872 109.637 55.4873 112.6 55.4682ZM70.757 89.6412C70.7788 92.6031 73.2116 94.9991 76.1747 94.98C79.1427 94.9534 81.5345 92.5247 81.5127 89.5594C81.4922 86.5941 79.0575 84.2015 76.095 84.224C73.127 84.2451 70.7352 86.6759 70.757 89.6412ZM26.1695 80.3396C29.1348 80.3157 31.5252 77.8843 31.5048 74.9183C31.4836 71.9536 29.0536 69.5624 26.0863 69.5815C23.1232 69.604 20.7293 72.0321 20.7484 75.0008C20.7757 77.9634 23.2063 80.3593 26.1695 80.3396Z" fill="url(#paint1_linear_1_9)"/>
<defs>
<linearGradient id="paint0_linear_1_9" x1="75" y1="150.002" x2="75" y2="-4.31536e-05" gradientUnits="userSpaceOnUse">
<stop stop-color="#202EAE"/>
<stop offset="1" stop-color="#3384BF"/>
</linearGradient>
<linearGradient id="paint1_linear_1_9" x1="69.3433" y1="105.368" x2="69.3433" y2="44.7052" gradientUnits="userSpaceOnUse">
<stop stop-color="#202EAE"/>
<stop offset="1" stop-color="#3384BF"/>
</linearGradient>
</defs>
</svg>
